<?xml version="1.0" encoding="UTF-8" standalone="no"?>
<svg
   xmlns:dc="http://purl.org/dc/elements/1.1/"
   xmlns:cc="http://creativecommons.org/ns#"
   xmlns:rdf="http://www.w3.org/1999/02/22-rdf-syntax-ns#"
   xmlns:svg="http://www.w3.org/2000/svg"
   xmlns="http://www.w3.org/2000/svg"
   xmlns:sodipodi="http://sodipodi.sourceforge.net/DTD/sodipodi-0.dtd"
   xmlns:inkscape="http://www.inkscape.org/namespaces/inkscape"
   fill="#000000"
   width="697"
   height="697.27179"
   viewBox="0 0 20.91 20.918154"
   version="1.1"
   id="svg4"
   sodipodi:docname="icon.svg"
   inkscape:version="1.0.1 (3bc2e813f5, 2020-09-07)"
   inkscape:export-filename="D:\Projects\rust\osa\src-tauri\icons\app-icon.png"
   inkscape:export-xdpi="141.03874"
   inkscape:export-ydpi="141.03874">
  <metadata
     id="metadata10">
    <rdf:RDF>
      <cc:Work
         rdf:about="">
        <dc:format>image/svg+xml</dc:format>
        <dc:type
           rdf:resource="http://purl.org/dc/dcmitype/StillImage" />
        <dc:title></dc:title>
      </cc:Work>
    </rdf:RDF>
  </metadata>
  <defs
     id="defs8" />
  <sodipodi:namedview
     pagecolor="#ffffff"
     bordercolor="#666666"
     borderopacity="1"
     objecttolerance="10"
     gridtolerance="10"
     guidetolerance="10"
     inkscape:pageopacity="0"
     inkscape:pageshadow="2"
     inkscape:window-width="1237"
     inkscape:window-height="1039"
     id="namedview6"
     showgrid="false"
     inkscape:zoom="0.13890625"
     inkscape:cx="-126.06402"
     inkscape:cy="157.64375"
     inkscape:window-x="1307"
     inkscape:window-y="0"
     inkscape:window-maximized="0"
     inkscape:current-layer="svg4"
     fit-margin-top="0"
     fit-margin-left="0"
     fit-margin-right="0"
     fit-margin-bottom="0"
     inkscape:document-rotation="0" />
  <path
     style="fill:#e6c384;fill-opacity:1;stroke:#16161d;stroke-width:0;stroke-linecap:round;stroke-miterlimit:4;stroke-dasharray:none;stroke-opacity:1"
     d="M 9.051064,5.9148636 C 8.366078,5.5687267 7.5060336,5.1581941 7.1398543,5.0025691 L 6.4740715,4.7196152 6.8284972,4.3937589 C 7.6218917,3.6643171 8.692928,2.8995466 9.716043,2.331915 l 0.569177,-0.3157834 0.278988,0.1408328 c 1.053979,0.5320466 2.219846,1.3419781 3.149082,2.1876755 l 0.399033,0.3631588 -0.470885,0.2020804 c -1.024892,0.4398347 -2.421839,1.1179355 -3.201243,1.5539366 l -0.143704,0.080388 z"
     id="path843" />
  <path
     style="fill:#54546d;fill-opacity:1;stroke:#e6c38d;stroke-width:0;stroke-linecap:round;stroke-miterlimit:4;stroke-dasharray:none;stroke-opacity:1"
     d="M 9.241589,19.207087 C 7.5398007,19.041667 5.9423906,18.431353 4.6388642,17.44855 4.4735021,17.323873 4.2815942,17.172575 4.2124015,17.11233 L 4.086597,17.002796 4.2571786,16.480893 C 5.2709508,13.379219 7.1121125,10.855823 9.854179,8.8099561 12.160093,7.089504 15.207572,5.785687 18.435537,5.1385553 18.706277,5.0842783 18.961744,5.0323365 19.003242,5.023129 l 0.07545,-0.016741 -0.01291,2.9794264 c -0.0138,3.1842316 -0.01368,3.1817406 -0.187553,4.0267826 -0.263305,1.279685 -0.833994,2.533102 -1.652913,3.630331 -0.372796,0.49949 -1.245039,1.3724 -1.740933,1.742264 -1.283063,0.95698 -2.632498,1.521743 -4.194097,1.75531 -0.517024,0.07733 -1.582052,0.111944 -2.048701,0.06658 z"
     id="path845" />
  <path
     style="fill:#54546d;fill-opacity:1;stroke:#54546d;stroke-width:0;stroke-linecap:round;stroke-miterlimit:4;stroke-dasharray:none;stroke-opacity:1"
     d="M 3.1510656,14.794141 C 2.753698,13.357471 2.7355168,13.138967 2.6915644,9.2718391 L 2.6496717,5.585921 3.567246,5.7756795 C 5.1728878,6.1077333 6.9802089,6.6525626 8.662081,7.3115531 L 9.527616,7.6506865 9.146725,7.9658218 C 8.512468,8.4905821 7.1023803,9.9265981 6.447631,10.714544 c -0.8778513,1.056433 -1.8784248,2.5536 -2.4882775,3.723229 -0.2885262,0.553361 -0.5478723,1.006535 -0.5763248,1.00705 -0.028452,5.53e-4 -0.1328358,-0.292291 -0.2319631,-0.650682 z"
     id="path1029" />
  <path
     d="m 3.120002,17.239726 a 9.991,9.991 0 0 0 17.33,-6.788 V 4.4517261 a 1,1 0 0 0 -1.062,-1 21.6,21.6 0 0 0 -3.854,0.731 10.569,10.569 0 0 0 -4.767,-3.68100004 1,1 0 0 0 -0.635,0 10.592,10.592 0 0 0 -4.751,3.66300004 21.024,21.024 0 0 0 -3.868,-0.713 1,1 0 0 0 -1.06300004,1 v 5.9999999 a 9.93,9.93 0 0 0 2.59200004,6.679 0.938,0.938 0 0 0 0.078,0.109 z m 15.33,-6.788 a 8.009,8.009 0 0 1 -8,8 7.892,7.892 0 0 1 -5.481,-2.186 c 1.611,-6.228 7.212,-9.7649999 13.481,-10.6939999 z m -11.046,-5.6319999 a 8.9,8.9 0 0 1 3.046,-2.29 8.749,8.749 0 0 1 3.045,2.288 20.715,20.715 0 0 0 -3.045,1.422 c -0.031,-0.018 -0.066,-0.033 -0.1,-0.051 q -0.655,-0.369 -1.308,-0.676 l -0.152,-0.071 c -0.5,-0.23 -0.989,-0.435 -1.469,-0.615 z m -4.954,0.76 a 21.322,21.322 0 0 1 6.091,1.917 14.7,14.7 0 0 0 -4.991,6.6109999 c -0.019,0.05 -0.041,0.1 -0.06,0.148 -0.008,0.022 -0.018,0.042 -0.026,0.064 a 7.908,7.908 0 0 1 -1.014,-3.868 z"
     id="path2"
     style="fill:#111111;fill-opacity:1;stroke:#1f1f28;stroke-width:0.9;stroke-miterlimit:4;stroke-dasharray:none;stroke-opacity:1" />
</svg>
